<svg xmlns="http://www.w3.org/2000/svg" width="15" height="15" viewBox="0 0 15 15">
    <path fill="currentColor" fill-rule="nonzero" d="M8.75 12.188v-1.876a.304.304 0 0 0-.088-.224.304.304 0 0 0-.225-.088H6.563a.304.304 0 0 0-.225.088.304.304 0 0 0-.088.225v1.874c0 .092.03.167.088.225a.304.304 0 0 0 .224.088h1.875c.092 0 .167-.03.225-.088a.304.304 0 0 0 .088-.225zm2.5-6.563a2.62 2.62 0 0 0-.542-1.592A3.698 3.698 0 0 0 9.355 2.9a3.71 3.71 0 0 0-1.66-.4c-1.582 0-2.79.693-3.623 2.08-.097.156-.071.293.078.41l1.29.977c.045.039.107.058.185.058.104 0 .186-.039.244-.117.345-.443.625-.742.84-.898.221-.156.501-.235.84-.235.312 0 .59.085.835.254.244.17.366.362.366.576 0 .248-.065.446-.195.596-.13.15-.352.296-.664.44-.41.182-.787.463-1.128.844-.342.381-.513.79-.513 1.226v.351c0 .092.03.167.088.225a.304.304 0 0 0 .224.088h1.875c.092 0 .167-.03.225-.088a.304.304 0 0 0 .088-.225c0-.123.07-.284.21-.483.14-.198.317-.36.532-.483.209-.117.368-.21.479-.279.11-.068.26-.182.449-.341.189-.16.334-.316.434-.47a2.578 2.578 0 0 0 .396-1.381zm2.744-1.885A7.31 7.31 0 0 1 15 7.5c0 1.36-.335 2.616-1.006 3.765a7.466 7.466 0 0 1-2.73 2.73A7.337 7.337 0 0 1 7.5 15a7.337 7.337 0 0 1-3.765-1.006 7.466 7.466 0 0 1-2.73-2.73A7.337 7.337 0 0 1 0 7.5c0-1.36.335-2.616 1.006-3.765a7.466 7.466 0 0 1 2.73-2.73A7.337 7.337 0 0 1 7.5 0c1.36 0 2.616.335 3.765 1.006a7.455 7.455 0 0 1 2.73 2.734z"/>
</svg>
